<svg width="512" height="512" viewBox="0 0 512 512" xmlns="http://www.w3.org/2000/svg">
  <rect width="512" height="512" fill="#0b0e11"/>
  <!-- three step arcs, clockwise from top -->
  <path d="M 269.9 96.6 A 160 160 0 0 1 413.6 283.8" fill="none" stroke="#8a939e" stroke-width="34"/>
  <path d="M 406.4 310.7 A 160 160 0 0 1 188.4 401.0" fill="none" stroke="#8a939e" stroke-width="34"/>
  <path d="M 164.2 387.1 A 160 160 0 0 1 133.4 153.2" fill="none" stroke="#8a939e" stroke-width="34"/>
  <!-- ember seal segment closes the ring -->
  <path d="M 153.2 133.4 A 160 160 0 0 1 250.4 96.1" fill="none" stroke="#ff5c33" stroke-width="34"/>
  <!-- crosshair + root -->
  <line x1="256" y1="196" x2="256" y2="236" stroke="#3a444e" stroke-width="8"/>
  <line x1="256" y1="276" x2="256" y2="316" stroke="#3a444e" stroke-width="8"/>
  <line x1="196" y1="256" x2="236" y2="256" stroke="#3a444e" stroke-width="8"/>
  <line x1="276" y1="256" x2="316" y2="256" stroke="#3a444e" stroke-width="8"/>
  <rect x="244" y="244" width="24" height="24" fill="#ff5c33"/>
</svg>
