<svg width="1620" height="700" viewBox="90 210 1620 700" xmlns="http://www.w3.org/2000/svg">
  <defs>
    <pattern id="grid" width="48" height="48" patternUnits="userSpaceOnUse">
      <path d="M 48 0 L 0 0 0 48" fill="none" stroke="#151b21" stroke-width="1"/>
    </pattern>
    <marker id="arrow" viewBox="0 0 10 10" refX="9" refY="5" markerWidth="8" markerHeight="8" orient="auto-start-reverse">
      <path d="M 0 1 L 9 5 L 0 9" fill="none" stroke="#8a939e" stroke-width="1.4"/>
    </marker>
    <marker id="arrowEmber" viewBox="0 0 10 10" refX="9" refY="5" markerWidth="8" markerHeight="8" orient="auto-start-reverse">
      <path d="M 0 1 L 9 5 L 0 9" fill="none" stroke="#ff5c33" stroke-width="1.4"/>
    </marker>
  </defs>

  <!-- background -->
  <rect width="1920" height="1080" fill="#0b0e11"/>
  <rect width="1920" height="1080" fill="url(#grid)"/>

  <!-- frame -->
  <rect x="48" y="48" width="1824" height="984" fill="none" stroke="#222a32" stroke-width="1"/>
  <path d="M 48 48 L 76 48 M 48 48 L 48 76" stroke="#ff5c33" stroke-width="2" fill="none"/>
  <path d="M 1872 1032 L 1844 1032 M 1872 1032 L 1872 1004" stroke="#ff5c33" stroke-width="2" fill="none"/>

  <!-- ===== agent row ===== -->
  <!-- researcher -->
  <g>
    <rect x="120" y="268" width="360" height="180" fill="#10151a" stroke="#222a32" stroke-width="1"/>
    <path d="M 120 268 L 138 268 M 120 268 L 120 286" stroke="#ff5c33" stroke-width="2" fill="none"/>
    <text x="150" y="310" font-family="DejaVu Sans Mono" font-size="17" letter-spacing="3" fill="#556069">STEP 01</text>
    <text x="150" y="350" font-family="DejaVu Sans Mono" font-size="30" letter-spacing="2" fill="#e8ebee">RESEARCHER</text>
    <text x="150" y="386" font-family="DejaVu Sans Mono" font-size="18" fill="#8a939e">finds issues</text>
    <line x1="150" y1="402" x2="450" y2="402" stroke="#222a32" stroke-width="1"/>
    <text x="150" y="430" font-family="DejaVu Sans Mono" font-size="16" fill="#ff5c33">h1 = keccak(step · prev=0x0)</text>
  </g>

  <!-- critic -->
  <g>
    <rect x="600" y="268" width="360" height="180" fill="#10151a" stroke="#222a32" stroke-width="1"/>
    <path d="M 600 268 L 618 268 M 600 268 L 600 286" stroke="#ff5c33" stroke-width="2" fill="none"/>
    <text x="630" y="310" font-family="DejaVu Sans Mono" font-size="17" letter-spacing="3" fill="#556069">STEP 02</text>
    <text x="630" y="350" font-family="DejaVu Sans Mono" font-size="30" letter-spacing="2" fill="#e8ebee">CRITIC</text>
    <text x="630" y="386" font-family="DejaVu Sans Mono" font-size="18" fill="#8a939e">challenges every finding</text>
    <line x1="630" y1="402" x2="930" y2="402" stroke="#222a32" stroke-width="1"/>
    <text x="630" y="430" font-family="DejaVu Sans Mono" font-size="16" fill="#ff5c33">h2 = keccak(step · prev=h1)</text>
  </g>

  <!-- finalizer -->
  <g>
    <rect x="1080" y="268" width="360" height="180" fill="#10151a" stroke="#222a32" stroke-width="1"/>
    <path d="M 1080 268 L 1098 268 M 1080 268 L 1080 286" stroke="#ff5c33" stroke-width="2" fill="none"/>
    <text x="1110" y="310" font-family="DejaVu Sans Mono" font-size="17" letter-spacing="3" fill="#556069">STEP 03</text>
    <text x="1110" y="350" font-family="DejaVu Sans Mono" font-size="30" letter-spacing="2" fill="#e8ebee">FINALIZER</text>
    <text x="1110" y="386" font-family="DejaVu Sans Mono" font-size="18" fill="#8a939e">signs the verdict</text>
    <line x1="1110" y1="402" x2="1410" y2="402" stroke="#222a32" stroke-width="1"/>
    <text x="1110" y="430" font-family="DejaVu Sans Mono" font-size="16" fill="#ff5c33">h3 = keccak(step · prev=h2)</text>
  </g>

  <!-- chaining arrows between agents -->
  <line x1="480" y1="358" x2="592" y2="358" stroke="#8a939e" stroke-width="1.4" marker-end="url(#arrow)"/>
  <text x="536" y="344" text-anchor="middle" font-family="DejaVu Sans Mono" font-size="15" fill="#556069">in = out</text>
  <line x1="960" y1="358" x2="1072" y2="358" stroke="#8a939e" stroke-width="1.4" marker-end="url(#arrow)"/>
  <text x="1016" y="344" text-anchor="middle" font-family="DejaVu Sans Mono" font-size="15" fill="#556069">in = out</text>

  <!-- task input, left edge -->
  <text x="120" y="238" font-family="DejaVu Sans Mono" font-size="17" letter-spacing="1.5" fill="#8a939e">TASK: keccak(contract source)</text>
  <line x1="300" y1="248" x2="300" y2="260" stroke="#8a939e" stroke-width="1.4" marker-end="url(#arrow)"/>

  <!-- ===== merkle section ===== -->
  <!-- leaves down to pair node -->
  <line x1="300" y1="448" x2="300" y2="520" stroke="#ff5c33" stroke-width="1.4"/>
  <line x1="780" y1="448" x2="780" y2="520" stroke="#ff5c33" stroke-width="1.4"/>
  <line x1="1260" y1="448" x2="1260" y2="560" stroke="#ff5c33" stroke-width="1.4"/>

  <!-- pair node h12 -->
  <line x1="300" y1="520" x2="540" y2="520" stroke="#ff5c33" stroke-width="1.4"/>
  <line x1="780" y1="520" x2="540" y2="520" stroke="#ff5c33" stroke-width="1.4"/>
  <line x1="540" y1="520" x2="540" y2="560" stroke="#ff5c33" stroke-width="1.4"/>
  <rect x="440" y="560" width="200" height="44" fill="#10151a" stroke="#ff5c33" stroke-width="1"/>
  <text x="540" y="589" text-anchor="middle" font-family="DejaVu Sans Mono" font-size="17" fill="#e8ebee">keccak(h1 ‖ h2)</text>

  <!-- root joins h12 + h3 -->
  <line x1="540" y1="604" x2="540" y2="660" stroke="#ff5c33" stroke-width="1.4"/>
  <line x1="1260" y1="560" x2="1260" y2="660" stroke="#ff5c33" stroke-width="1.4"/>
  <line x1="540" y1="660" x2="900" y2="660" stroke="#ff5c33" stroke-width="1.4"/>
  <line x1="1260" y1="660" x2="900" y2="660" stroke="#ff5c33" stroke-width="1.4"/>
  <line x1="900" y1="660" x2="900" y2="700" stroke="#ff5c33" stroke-width="1.4" marker-end="url(#arrowEmber)"/>

  <!-- root block -->
  <g>
    <rect x="660" y="708" width="480" height="96" fill="#10151a" stroke="#ff5c33" stroke-width="1.5"/>
    <path d="M 660 708 L 684 708 M 660 708 L 660 732" stroke="#ff5c33" stroke-width="2.5" fill="none"/>
    <path d="M 1140 804 L 1116 804 M 1140 804 L 1140 780" stroke="#ff5c33" stroke-width="2.5" fill="none"/>
    <text x="900" y="750" text-anchor="middle" font-family="DejaVu Sans Mono" font-size="28" letter-spacing="5" fill="#ff5c33">MERKLE ROOT</text>
    <text x="900" y="784" text-anchor="middle" font-family="DejaVu Sans Mono" font-size="17" fill="#8a939e">anchored onchain · Rite.submitWorkflow()</text>
  </g>

  <!-- arrow root -> seal -->
  <line x1="1140" y1="756" x2="1420" y2="756" stroke="#8a939e" stroke-width="1.4" marker-end="url(#arrow)"/>
  <text x="1280" y="742" text-anchor="middle" font-family="DejaVu Sans Mono" font-size="15" letter-spacing="1" fill="#556069">SP1 zkVM · Groth16</text>

  <!-- seal -->
  <g>
    <circle cx="1560" cy="756" r="118" fill="none" stroke="#3ecf8e" stroke-width="1.5"/>
    <circle cx="1560" cy="756" r="102" fill="none" stroke="#3ecf8e" stroke-width="1" stroke-dasharray="3 5"/>
    <text x="1560" y="740" text-anchor="middle" font-family="DejaVu Sans Mono" font-size="30" letter-spacing="5" fill="#3ecf8e">SEALED</text>
    <text x="1560" y="773" text-anchor="middle" font-family="DejaVu Sans Mono" font-size="16" letter-spacing="1.5" fill="#3ecf8e">PROOF VERIFIED</text>
    <text x="1560" y="798" text-anchor="middle" font-family="DejaVu Sans Mono" font-size="15" letter-spacing="1.5" fill="#8a939e">tamper = void</text>
  </g>

</svg>
